<svg width="32" height="32" viewBox="0 0 32 32" fill="none" xmlns="http://www.w3.org/2000/svg">
  <rect x="0.5" y="0.5" width="31" height="31" rx="<svg width="32" height="32" viewBox="0 0 32 32" fill="none" xmlns="http://www.w3.org/2000/svg">
  <!-- Outer Rounded Square Background: Subtle and modern -->
  <rect x="0" y="0" width="32" height="32" rx="7" fill="#22252A"/> <!-- Example: Card background color -->

  <!-- Inner Dynamic Gradient Shape -->
  <path d="M 6 10 C 6 8 8 6 10 6 L 22 6 C 24 6 26 8 26 10 L 26 22 C 26 24 24 26 22 26 L 10 26 C 8 26 6 24 6 22 L 6 10 Z"
        fill="url(#gradientMain)" opacity="0.9"/>
  
  <!-- Overlapping Diagonal Element 1: Represents growth/connection -->
  <path d="M 8 13 L 24 19 L 22 21 L 6 15 Z" fill="white" fill-opacity="0.2"/>

  <!-- Overlapping Diagonal Element 2: Creates depth and complexity -->
  <path d="M 8 19 L 24 13 L 22 11 L 6 17 Z" fill="white" fill-opacity="0.2"/>

  <!-- Subtle 'S' shape formed by the overlap (optional, can be removed if too subtle) -->
  <path d="M12 11 H 20 V 13 H 12 V 11 Z M12 19 H 20 V 21 H 12 V 19 Z" fill="white" fill-opacity="0.1"/>
  
  <!-- Gradient Definition for the main shape -->
  <defs>
    <linearGradient id="gradientMain" x1="0" y1="0" x2="32" y2="32" gradientUnits="userSpaceOnUse">
      <!-- These hex codes are examples; ideally they match the HSL values from your Tailwind config -->
      <stop stop-color="#9F46FF"/> <!-- Primary Purple: hsl(260 80% 60%) -->
      <stop offset="1" stop-color="#33C6F7"/> <!-- Secondary Blue: hsl(200 80% 50%) -->
    </linearGradient>
  </defs>
</svg>6.5" fill="url(#mainGradient)" stroke="#C6C6C6" stroke-opacity="0.2"/>
  
  <path d="M11.5 10C11.5 8 13.5 7 15 7C16.5 7 18 8 18 10C18 12 16.5 13 15 13C13.5 13 11.5 14 11.5 16C11.5 18 13.5 19 15 19C16.5 19 18 18 18 16"
        stroke="white" stroke-width="2.5" stroke-linecap="round" stroke-linejoin="round"/>
  
  <path d="M20.5 13.5L23.5 16L20.5 18.5" stroke="white" stroke-width="1.5" stroke-linecap="round" stroke-linejoin="round" opacity="0.8"/>
  <path d="M8.5 13.5L5.5 16L8.5 18.5" stroke="white" stroke-width="1.5" stroke-linecap="round" stroke-linejoin="round" opacity="0.8"/>

  <defs>
    <linearGradient id="mainGradient" x1="0" y1="0" x2="32" y2="32" gradientUnits="userSpaceOnUse">
      <stop stop-color="#9F46FF"/> <stop offset="1" stop-color="#33C6F7"/> </linearGradient>
  </defs>
</svg>